<?xml version="1.0" encoding="utf-8"?>

<!DOCTYPE svg PUBLIC "-//W3C//DTD SVG 1.1//EN" "http://www.w3.org/Graphics/SVG/1.1/DTD/svg11.dtd">
<svg version="1.1" id="Layer_1" xmlns="http://www.w3.org/2000/svg" xmlns:xlink="http://www.w3.org/1999/xlink" x="0px" y="0px"
	 viewBox="0 0 1165.879 1666.539" enable-background="new 0 0 1165.879 1666.539" xml:space="preserve">
<g>
	<g>
		<path fill="none" d="M768.571,33.868l-2.912-0.599c-0.105,0.211-0.199,0.408-0.284,0.599H768.571z"/>
		<path fill="#006B3F" d="M110.426,1543.927l0.004,0c0.081-0.088,0.162-0.175,0.252-0.266L110.426,1543.927z"/>
		<path fill="#006B3F" d="M41.344,1116.501c-1.805,3.108-0.21,7.252-1.112,10.77c-1.185,4.616,1.292,4.525,4.227,7.353
			c1.581,1.524,0.292,4.584,2.818,6.239c3.274,2.144,4.707,4.667-0.074,6.536c-1.966,2.24-2.123,2.719-2.818,5.645
			c-0.597,2.517-0.503,3.79-2.373,5.719c-0.752,0.776-1.87-0.136-2.966,0.223c-1.55,0.508-2.333,3.41-2.744,4.828
			c-0.454,1.571-1.781,6.387-1.038,7.502c0.937,1.405,2.499,1.783,3.856,2.674l1.258,18.049l14.315,55.558l0.074,11.586l5.485,1.634
			l12.684,24.065l6.301,38.921l15.277,32.681l-2.218,37.426l16.537-1.708l-2.299,21.391c0.479,1.287,3.106,0.33,4.079,0.817
			c2.742,1.376,1.14,3.675,5.339,3.194c3.494-0.401,9.893-2.928,12.606-5.125c4.859-3.933,2.198-2.93,7.045,0.074
			c1.662,1.031,2.965,0.817,4.746,0.817c1.077,0,3.441,2.373,5.191,2.674c1.851,0.318,4.916-1.052,5.932,0.668
			c4.314,7.304,1.406,12.534,2.892,20.648c0.789,4.309,3.955,11.495,3.704,15.385c0.834,4.168,16.591,36.649,0.594,30.528
			c-1.456-0.557-4.171-2.636-5.71-2.006c-1.342,0.549-0.784,12.283-1.632,14.409c-1.711,4.292-1.223,2.222,0.593,5.646
			c1.012,1.907-1.721,5.719,3.411,5.719c0.385,1.562-0.137,2.935-0.667,4.457c0.165,2.008-0.831,6.52,1.038,7.873
			c1.622,1.175,4.615,1.042,4.004,3.788c-1.068,4.802,3.302,8.007,1.632,13.444c-0.356,1.159,0.82,2.79,0.519,3.342
			c-0.642,1.177-3.068,0.964-4.375,2.897c-1.25,1.847-5.166-1.124-6.822-1.189c-3.256-0.127-5.26,2.712-8.677,0.891
			c-4.135-2.205-1.304-4.434-7.193-1.485c-1.76,0.882-2.222-0.531-3.708-1.189c-4.535-2.007-6.196,0.354-9.937,2.526
			c-2.027,1.176-4.026,1.436-6.378,1.486l-4.33,0.043c-3.518,3.807,0.959,5.411-6.942,2.556c-7.544-2.725-9.008-7.873-18.169-7.873
			c-4.393,0-5.532,2.82-9.122,2.6l-6.261-0.384l-0.081,5.265l75.753,15.471l86.837,18.049l29.665,8.839
			c5.843,3.841,16.074,5.477,18.762,12.478c0.415,1.083-1.172,2.259,0.445,4.011c1.676,1.818,5.47,1.39,7.713,2.451
			c2.409,1.139,1.533,3.983,3.337,5.794c1.087,0.6,6.357,0.881,6.6,1.263c0.665,1.046-0.047,3.805,1.261,4.679
			c2.166,1.446,9.357,1.699,12.532,2.823c4.504,1.594,2.514,1.978,2.818,5.719c0.167,2.05,2.439,2.442,3.411,3.788
			c2.315,3.204,3.779,1.189,7.193,1.189c4.255,0,2.971,0.966,6.081-2.451c3.028-3.329,9.302-0.647,13.125-0.297
			c5.345,0.49,9.857-11.124,14.164-13.667l7.045-4.159c2.966-1.752,5.429-3.552,8.454-4.308c4.523-1.682,7.453-0.497,11.198-4.828
			c4.744-5.485,15.992,0.237,20.764-3.268c1.147-0.843-2.515-8.776,0.371-11.662c1.642-1.642,6.09-0.564,8.379-3.045
			c1.309-1.419-1.484-3.504,1.039-5.497c4.314-3.409,20.234,0.309,17.872-11.587c2.095-5.311,3.629-7.13,10.011-7.13
			c8.633,0,16.922-0.818,24.991-4.011c3.757-1.487,6.641-1.479,10.382-2.08c3.418-0.548,6.867-2.472,10.456-3.194
			c3.726,0.479,13.124-0.233,14.015-4.754l0.964-0.742c7.606,0,24.289,0.272,29.589-4.754c2.333-2.212,5.816-5.637,8.751-6.76
			c4.729-1.81,5.161-2.638,9.122-5.719c5.221-0.405,8.074-3.922,12.013-6.611c4.641-3.168,10.123-2.525,15.573-2.525l43.605-1.263
			c4.713-1.816,8.507-0.878,13.496-3.566c5.223-2.813,12.405-11.379,15.351-16.415c3.472-5.938,25.688-13.977,32.481-16.712
			c10.754-4.329,24.174-0.833,30.998-11.959c1.583-1.205,3.94-3.144,4.523-5.051c0.451-1.472-1.336-3.026,0.742-3.119
			c3.234-0.146,9.448-3.918,11.568-6.314c2.517-2.843,2.159-4.009,6.081-5.051c6.313-1.676,11.488-5.865,18.169-7.13l20.393-3.863
			l24.917-9.879c5.686-2.255,13.186-4.751,17.427-9.21c2.565-2.698,7.547-1.78,11.198-3.937c5.981-3.535,9.497-5.481,13.942-10.993
			c4.391-5.446,7.117-7.826,14.164-10.027c2.699-0.255,5.885-0.087,7.712-2.377c6.888-8.636,22.176-7.374,31.369-13.592
			c5.637-3.814,21.931-5.437,29.144-5.794c4.981-0.358,11.462,1.445,16.018,0.297c-0.071-0.287-2.327-1.912-2.818-2.897
			c-2.185-4.385-10.471-2.342-11.568-5.571c-1.063-3.125,3.002-1.408,4.746-1.857c5.42-1.396,9.965-7.436,16.538-5.57
			c4.526,1.284,5.387,4.661,10.901,2.748c4.358-1.512,3.738-0.327,3.485,2.748c-0.255,3.092-0.991,4.226-3.337,5.794
			c-1.78,1.189-5.652,1.28-6.748,2.377c0.907,0.686,9.9,3.161,11.568,3.343l16.908,1.857c4.792-0.426,16.086,3.291,19.058-0.892
			l0.668-0.074c6.672,6.672,56.232,2.587,64.146-2.897c5.793-1.273,11.059-15.925,12.755-21.02c1.012-3.041,1.112-6.415,1.112-9.507
			c0-2.591,2.197-4.105,1.484-6.982l-0.075-0.074c-3.714,0-3.382,8.69-6.08,8.69c-1.726,0-4.657,7.989-4.227,9.21
			c2.678,7.605-6.706,13.523-13.274,14.781c-0.907,0.174-3.795-3.055-5.339-4.011c-4.683-2.901,7.861-2.293,7.861-8.764
			c0-11.214-9.772,1.39-15.648,2.897c-0.289,0.073-3.753-6.685-0.741-6.685c2.633,0,2.232-0.05,4.375-0.742
			c3.721-1.2,0.519-2.772,0.519-4.605c1.972-0.497,8.231-6.39,8.231-8.542c0-1.5-5.626-2.488-7.415-2.896
			c-2.752-0.627-5.659-3.411-1.335-4.68c3.372-0.989,2.184-5.632,3.782-5.719c2.087-0.115,4.411,0.506,5.339-1.931
			c1.667-4.375,8.129-1.449,6.897-7.651c-0.721-3.63,2.848-1.294,3.856,0.446c2.919,5.034,20.836-2.376,25.288-2.376l0.074,0.074
			c1.909-3.159,0.446-7.347,5.561-8.616c1.758,6.975-8.245,13.935-13.496,14.335c-0.573,0.044-8.217,0.392-5.858,1.931
			c4.383,2.858,0.869,12.478,2.447,12.478c0.4-2.023,9.452-9.676,11.272-12.107c10.26-13.702,22.251-20.889,36.085-26.81
			l-0.045-15.379h-28.773c-0.625-5.69-2.338-11.21-8.676-12.479c-2.748-0.549-3.087-1.875-4.598-3.788
			c-1.815-2.296-2.045-5.782-3.041-8.468c-1.368-3.687-4.068-9.649-3.708-13.518l-22.841-0.52l-4.153-4.606
			c-6.276-9.85-14.378-11.674-24.546-15.746c-5.797-2.322-9.651-14-12.013-19.238c-0.644-1.429-3.143-2.549-4.004-4.011
			c-4.171-7.074,1.828-8.619,4.523-13.593c1.309-5.708-3.355-6.7-8.009-6.388c-4.843,0.325-6.301-1.733-9.047-5.422
			c-1.71-2.299-3.273,0.351-5.043-1.559c-8.113-8.76,4.019-24.39-5.71-31.122c-3.564-2.467-2.34-1.81-6.155-2.303
			c-0.76-0.098-5.409-4.209-5.71-5.199l-2.076-6.833c-1.253-2.823-0.335-3.531-3.337-5.125c-2.072-1.1-4.312-1.688-6.451-2.823
			c-2.315-1.229,1.546-10.408,3.263-11.884c1.273-1.095,2.189-2.135,2.805-3.34H50.173L41.344,1116.501z"/>
		<path fill="#FCD116" d="M163.931,567.681c4.855,1.549,8.048,2.252,13.051,3.12c8.277,1.436,3.485,5.824,3.485,11.438
			c0,5.824,2.655,8.9,7.861,11.884c3.632,2.082,2.357,7.701,2.151,11.587c-0.317,5.96,8.659,8.485,4.523,16.786
			c-0.405,0.813-9.73,7.947-3.634,7.947c1.887,0,4.349,0.259,6.95,0.853l24.192,144.65l-18.539,8.319l-5.858-3.416l-6.229,10.176
			c0.926,2.09,1.631,3.721,2.818,5.645c1.069,1.734,1.435,3.822,2.448,5.348c1.784,2.69,1.791,10.335,0.222,12.998
			c-1.296,2.2-6.987,1.875-9.27,2.228c-4.75,0.736-9.385,1.864-13.641,4.235l-10.011,13.295l-7.045,7.131l-3.56-3.194l-2.67,0.149
			l-2.373,23.471l-8.602,6.537l-0.668,7.725l-3.93,3.714l-0.445,6.536l-4.307,3.492l-16.908,36.246l-1.187,29.265l-4.449,8.022
			l-0.445,8.17l-4.449,17.975l-0.89,17.975l5.933,8.764l-16.609,22.803l-1.409,16.86l-16.685,1.485l-23.578,42.638h923.318
			c0.663-1.298,0.977-2.786,0.977-4.756c0-5.25-2.723-7.865-7.565-9.433c-2.667-0.863-2.441-1.756-3.93-3.714
			c-1.398-1.839-0.101-4.114,1.705-4.977c3.11-1.487,3.464,1.232,6.971-1.559c2.599-2.07,7.912,0.391,9.789-1.485
			c3.515-3.515,3.92-5.944,4.598-10.696c0-4.623-0.36-8.286,0.964-12.627c1.501-4.923,0.1-4.131-0.297-8.467
			c-0.836-9.141,2.436-11.747,6.674-18.941c1.498-2.542,1.039-9.659,1.039-12.775c0-2.876,1.721-4.871,1.78-7.279
			c7.02-7.049,0.493-14.633-0.594-22.803c-0.166-1.251,0.357-7.354-1.335-7.354c-0.304,0.93-7.741,3.433-8.825,3.64
			c-4.313,0.824-7.298,0.94-11.568-0.297c-2.874-1.437-5.82-6.151-8.231-8.393c-2.198-2.044-0.036-6.427-2.077-8.468
			c-1.831-1.831-2.904-1.349-2.225-4.085c2.295-9.244-0.506-19.644,3.337-28.819c2.126-5.076,15.012-2.238,14.387-9.581
			c0-5-2.536-19.98,5.784-19.98c0.968,0,5.971,2.106,5.413-0.074c-0.759-2.968-1.76-6.033-2.225-9.062
			c-0.618-4.037,3.114-7.651,1.706-11.364c-0.718-1.894-1.904-4.105-2.077-6.165c0.879-5.535,0.965-12.701,0.965-18.346
			c0-5.402-0.345-8.199-2.892-12.85c-2.028-3.703-1.24-4.485-0.89-8.319c0.459-5.026,1.787-8.931,0.445-14.038
			c-0.286-4.331-1.632-8.163-1.632-12.924c0-4.43-0.214-7.751-2.966-11.216c-0.775-0.977,3.366-3.296,4.078-4.011
			c1.079-1.082,0.777-6.781,0.222-8.245c-0.631-1.665-2.937-2.061-3.781-4.085c-0.489-1.173,0-4.045,0-5.496l0.074-0.075
			c5.304,0,9.646-0.83,11.568-6.611c1.782-2.673,0.854-2.901,4.746-2.154c2.563,0.492,4.658-1.872,6.303-3.416
			c2.546-2.389,7.58-5.05,10.827-5.868c0-4.213,0.812-9.982-3.93-11.364c-3.022-0.881-2.596-10.902-2.596-13.89
			c0-3.201-6.867-0.887-7.193-4.457c-0.214-2.342-2.799-1.306-3.708-2.674c-0.751-1.131-0.464-5.57-0.667-7.205
			c0-9.535-7.116-15.841-16.463-17.752c-2.73-0.558-4.902,0.208-6.229-2.6c-0.788-1.67-4.981-7.077-6.6-7.873
			c-1.602-0.788-4.088-0.172-5.413-1.04c-1.657-1.085-0.189-3.981-2.744-5.051c-3.051-1.276-5.671-1.126-8.454-3.342l-18.688-34.315
			c-0.791-2.373-0.82-6.201-1.261-8.765c-0.846-4.918,4.148-6.094,7.341-3.045c1.1,1.051,3.875,4.96,5.488,3.342
			c2.36-2.365-1.372-8.945,2.076-8.468c1.741,0.241,4.138,1.57,5.859,2.228c6.612,2.53,6.387-5.133,6.6-9.656
			c0.137-2.922,3.543-1.52,4.598-4.902c0.215-2.833,1.648-5.686,1.78-8.468c0.118-2.51-1.991-3.744-2.373-6.239
			c-0.305-1.988,0.121-3.299-1.039-4.977l-5.339-7.725l-7.861-11.586c-1.627-2.398-1.583-4.257-1.279-6.344H157.419
			C159.202,567.719,162.25,567.145,163.931,567.681z"/>
		<path fill="#CE1126" d="M764.676,37.643c0,0.8,1.931,2.159,2.151,3.045c1.012,4.087-3.362,5.003-6.229,6.611
			c-2.812,1.578-5.064,3.97-7.53,6.054l-5.318,3.937l-1.614-4.198l-2.956-4.607l-3.273-0.591c-8.054,0-8.212,1.468-11.272,8.393
			c-2.261,5.117,3.261,8.065-3.856,10.473c-2.522,0.854-8.802,4.43-9.418,7.056c-1.24,5.281-7.433,1.336-11.346,4.159
			c-1.352,0.976-5.074-0.981-6.452-1.337c-4.632-1.197-7.315,12.13-9.047,15.821l-5.341,4.312c-0.456-0.438-0.907-0.881-1.333-1.341
			c-1.113-1.2-3.805-2.566-4.598-3.714c-0.806-1.167-1.277-2.571-1.854-3.863c-0.79-1.767-4.095-1.433-4.301-3.342
			c-0.301-2.79,3.087-2.177,2.892-4.977c-0.238-3.418-6.261,2.349-7.49-2.897c-0.072-0.306-0.157-0.589-0.274-0.91l-26.423-0.13
			c-1.561-0.141-2.002-1.203-2.002-2.599c-1.197-0.403-2.638,0.162-3.93,0.223c-1.462,0.068-2.558-0.408-2.892,1.189
			c-0.871,4.161-3.827,0.703-5.932,2.228c-1.179,0.853-2.082,4.906-2.744,5.125v0.223l-0.074,0.074
			c-1.499,0-2.953-0.446-4.449-0.446c-1.128,0-0.198-2.05,0.222-2.154c0-1.57-1.396-1.522-2.67-1.783
			c-1.613-0.332-2.177-2.213-2.595-3.639l-20.615,0.149l0.148-2.823l-26.845-0.149l-0.148,4.457l-68.077-0.446l-11.272-7.131
			l-37.375-0.149l-0.202,7.853l-256.234-0.945l0.149,3.788L160.96,78.05l-0.299-3.416l-24.126,0.487
			c-0.246,0.848-0.466,1.721-0.641,2.633c-0.862,4.501,1.853,7.074,3.189,10.844c1.539,4.342,1.582,10.963-1.854,14.186
			c-1.606,1.507-3.057,1.477-4.894,2.228c-3.501,1.433-5.447,14.745-7.045,18.569c-2.611,6.244-3.688,13.298-7.416,18.866
			c-0.556,0.831-4.686,4.458-4.365,6.325c0.073,0.431,0.385,0.768,1.029,0.954c2.638,0.762,3.856-0.675,3.856,2.897
			c0,3.322-0.62,6.604-2.151,9.433c-1.373,2.537-5.561,5.734-3.115,8.839c3.479,4.415,3.255,8.473,6.08,13.073
			c1.868,3.04,2.387,8.234,3.782,11.735c2.143,5.375,5.714,12.027,9.196,16.786c0.732,1.001,2.647,1.462,3.634,2.451
			c1.386,1.389,1.207,3.532,2.818,4.531c2.41,1.494,5.804,0.249,8.529,0.52c2.285,0.227,8.52,0.375,5.492,4.245
			c-2.926,3.738-9.463,2.218-13.2,6.314c-3.075,3.37-1.583,7.362-4.005,11.29c-1.363,2.212-0.685,5.851,1.112,7.799
			c1.627,1.764,3.771,0.363,5.636,2.228c2.385,2.385,3.583,6.313,6.971,6.833c1.307,0.2,7.367-1.394,6.6,3.566
			c-1.009,6.522-2.279,8.519-6.229,12.478c-1.881,1.884-5.447,3.143-4.746,6.314c1.54,6.963,2.67,11.479,2.67,18.717
			c0,6.193-1.449,11.006,0.593,17.306c1.609,4.964,4.624,9.659,7.342,13.815c3.301,5.047-1.652,14.492-2.373,20.129
			c-1.194,9.34,7.873,12.84,7.341,20.722c-0.234,3.469-4.599,3.97-6.748,6.388c-1.654,1.861-2.337,6.564-3.634,9.061
			c-0.782,1.505-2.946,3.111-3.041,4.902c-0.151,2.847,0.103,7.713,0.519,10.547c0.514,3.505,5.196,0.242,6.674,2.302
			c2.067,2.883,1.135,4.822,4.153,6.833c1.924,1.283-0.741,4.812-2.002,6.165c-3.522,3.779-3.742,5.82-4.079,11.215
			c-0.365,5.851,7.042,11.429,11.346,14.855c3.255,2.592,7.502,6.779,10.192,11.342c1.963,3.331,3.098,6.863,2.415,10.124
			c-1.319,6.303-1.783,5.603,0.815,11.364c1.678,3.721-2.436,8.898-4.449,11.958c-0.108,0.165-3.958,3.946-4.598,5.051
			c-2.457,4.25-2.25,10.473,4.005,10.473c7.367,0,12.301,10.242,4.227,13.369c-2.169,0.84-8.25,4.5-9.344,6.462
			c-1.938,3.474-3.902,6.811-5.487,10.621c-2.258,5.427-6.689,4.141-8.083,6.239c-0.253,0.38,1.062,3.314,1.335,3.936
			c0.83,1.886,0.455,7.14,0.074,9.136c-1.284,6.72-4.83,7.925,2.003,12.775c0.21,0.149,0.47,0.254,0.756,0.337H946.64
			c0.208-1.433,0.538-2.973,0.538-4.872c0-3.187,2.504-3.098,4.449-5.422c3.825-2.871,2.717-8.909,1.928-12.775
			c-1.198-5.865-1.692-2.973,3.263-5.719c2.436-1.35,3.635-3.716,4.82-6.09c1.038-2.08,4.27-7.05,3.856-9.211
			c-0.365-1.902-2.198-3.466-2.002-5.57c-3.114-4.283-3.664-6.723-0.89-11.068c1.932-3.025,7.861-2.54,7.861-6.09
			c0-3.048-2.322-4.824-0.742-7.725c1.444-2.651,2.447-8.229,2.447-11.29c0-6.492-1.261-11.53-8.602-12.107
			c-9.982,0,1.961-8.796-3.782-11.513c-6.082-2.879-12.98-4.514-19.577-6.016c-5.179-1.179-7.025,3.046-11.272,3.046
			c-1.78,0-4.082-1.087-5.71-0.223c-4.784,2.538-0.999,10.519-8.677,13.369c-8.621,3.2-14.548,4.316-22.767-0.668
			c0.623-1.008,3.339-1.557,3.041-2.525c-0.516-1.669-2.607-4.249-2.67-5.719c-0.091-2.139,3.174-1.878,4.746-1.782
			c5.105,0.313,19.264-8.288,11.272-11.216c-7.104-2.602-20.356,3.4-16.389-10.547c1.263-4.443,7.909,0.041,11.42-2.451
			c3.583-2.543,4.317,0.214,7.49,1.115c3.449,0.979,4.955-4.081,7.713-0.966c4.98,5.626,17.539-7.454,1.854-10.176
			c-4.185-0.726-12.303,6.031-14.09,4.977c-4.78-2.822-4.601-8.065-7.416-12.33c-1.773-2.687,1.317-4.37,1.632-7.279
			c0.7-6.477,12.899,6.451,15.277,6.314c5.137-0.298,6.097-6.169,6.229-10.176c0.243-7.324-8.478-8.799-7.416-16.044
			c0.947-6.464,4.113-12.115,6.229-18.123c1.833-5.205-0.679-7.939-1.335-12.85c-0.316-2.365-0.346-6.417,0.667-8.542
			c1.531-3.211,4.184-3.181,6.6-4.902c5.331-3.799-4.004-11.613-4.004-16.786c0-2.449-0.719-9.386,2.002-8.393
			c2.179,0.795,4.144,0.39,6.377,0.594c2.86,0.261,4.405,1.394,3.782-2.823c-0.535-3.626-0.833-7.514-3.931-9.878
			c-2.482-1.894-7.443-1.796-8.083-5.348c-0.521-2.89-1.09-5.47,0.667-8.022c1.319-1.917,0.559-3.911,0.445-5.942
			c-0.172-3.072-0.637-5.892-0.519-9.061c0.152-4.054,1.027-7.399,1.187-11.587c0.159-4.199,2.321-7.169,5.221-9.475l-0.179-2.706
			c0.498-1.499,3.397-4.136,3.115-5.273c-2.274,0-4.781-0.685-7.119-0.075c-1.205,0.315-8.303,2.924-8.677,1.709
			c-0.453-1.471,0.523-3.327,0.594-4.828c0.172-3.651,0.596-1.79-2.373-3.416c-2.207-1.209-1.059-5.267-3.263-7.354
			c-1.026-0.971-3.72-1.182-3.337-3.045c0.426-2.075,2.427-1.43,2.225-3.788c-0.287-1.454-3.377-4.334-4.375-5.645
			c-1.601-2.105-2.106-1.373-3.634,0.743c-3.733,5.166-8.187,0.913-12.532-1.263c-3.492-1.749-2.019,5.477-5.488,2.971
			c-1.174-0.848-7.035-7.435-7.49-8.616c-0.786-2.041-0.46-4.487-1.78-6.314c-1.577-2.184-3.304-4.005-4.227-6.611
			c-3.657-10.32-12.096-10.68-19.8-16.415c-2.273-2.485-3.881-5.996-5.265-8.764c-3.921,0-8.847-2.318-11.346-5.422
			c-3.297-4.095-7.408-3.218-12.607-4.531c-4.221-1.067-4.008-3.12-5.858-6.388c-0.992-1.751-1.85-11.171-0.964-12.775
			c1.152-2.083,2.567-3.096,2.67-5.942c0.131-3.645,0.727-7.018,1.706-10.547c1.64-4.395,13.149-10.953,12.384-14.038
			c-0.609-2.458-0.633-5.012-1.484-7.427c-0.905-2.572,1.199-5.41,2.299-7.873c1.179-2.641,3.533-8.544,2.67-11.364
			c-0.386-1.265-1.901-5.172-1.186-6.165c1.452-2.015,4.235-2.225,5.71-4.902c5.786-3.634,4.295-8.115,3.931-14.038
			c-0.359-5.846,2.151-11.439-4.079-14.186c-3.545-1.563-8.428-3.937-12.31-3.937c-5.948,0-10.106,5.359-16.315,2.599
			c-2.486-1.105-5.287-4.827-7.787-4.977c-3.037-0.181-3.609-3.925-4.375-6.536v-0.001l-30.663-6.302h-3.196
			C764.815,35.122,764.676,36.014,764.676,37.643z"/>
	</g>
	<polygon points="582.318,569.337 647.979,771.421 860.462,771.421 688.56,896.315 754.221,1098.399 582.318,973.504 
		410.415,1098.399 476.076,896.315 304.173,771.421 516.657,771.421 	"/>
</g>
</svg>
